nColumns=19
nRows=107
DataType=double
version=3
OpenSimVersion=4.1
endheader
time	ground_force_calcn_r_vx	ground_force_calcn_r_vy	ground_force_calcn_r_vz	ground_force_calcn_r_px	ground_force_calcn_r_py	ground_force_calcn_r_pz	ground_force_calcn_r_mx	ground_force_calcn_r_my	ground_force_calcn_r_mz	ground_force_calcn_l_vx	ground_force_calcn_l_vy	ground_force_calcn_l_vz	ground_force_calcn_l_px	ground_force_calcn_l_py	ground_force_calcn_l_pz	ground_force_calcn_l_mx	ground_force_calcn_l_my	ground_force_calcn_l_mz
2.69	0	0	0	0	0	0	0	0	0	0	0	0	0	0	0	0	0	0
2.695	0	0	0	0	0	0	0	0	0	0	0	0	0	0	0	0	0	0
2.7	0	0	0	0	0	0	0	0	0	0	0	0	0	0	0	0	0	0
2.705	0	0	0	0	0	0	0	0	0	0	0	0	0	0	0	0	0	0
2.71	0	0	0	0	0	0	0	0	0	0	0	0	0	0	0	0	0	0
2.715	0	0	0	0	0	0	0	0	0	0	0	0	0	0	0	0	0	0
2.72	0	0	0	0	0	0	0	0	0	0	0	0	0	0	0	0	0	0
2.725	0	0	0	0	0	0	0	0	0	0	0	0	0	0	0	0	0	0
2.73	0	0	0	0	0	0	0	0	0	0	0	0	0	0	0	0	0	0
2.735	0	0	0	0	0	0	0	0	0	0	0	0	0	0	0	0	0	0
2.74	0	0	0	0	0	0	0	0	0	0	0	0	0	0	0	0	0	0
2.745	0	0	0	0	0	0	0	0	0	0	0	0	0	0	0	0	0	0
2.75	0	0	0	0	0	0	0	0	0	0	0	0	0	0	0	0	0	0
2.755	0	0	0	0	0	0	0	0	0	0	0	0	0	0	0	0	0	0
2.76	0	0	0	0	0	0	0	0	0	0	0	0	0	0	0	0	0	0
2.765	0	0	0	0	0	0	0	0	0	0	0	0	0	0	0	0	0	0
2.77	-56.0875	106.194	-9.10078	1.20434	0	-0.24085	0.805111	-1.52437	0.130638	0	0	0	0	0	0	0	0	0
2.775	-106.026	284.942	-30.8195	1.10801	0	-0.236061	1.05584	-2.83755	0.306912	0	0	0	0	0	0	0	0	0
2.78	-162.229	544.583	-64.3891	1.08134	0	-0.246797	1.73593	-5.8273	0.688995	0	0	0	0	0	0	0	0	0
2.785	-203.679	862.714	-105.267	1.05647	0	-0.256074	2.17573	-9.21564	1.12448	0	0	0	0	0	0	0	0	0
2.79	-218.052	1213.59	-140.837	1.03369	0	-0.264802	1.41485	-7.87448	0.913828	0	0	0	0	0	0	0	0	0
2.795	-219.784	1561.5	-156.383	1.0129	0	-0.271868	-0.456882	3.24601	-0.325086	0	0	0	0	0	0	0	0	0
2.8	-241.557	1858.42	-144.133	0.994148	0	-0.276863	-2.48759	19.1383	-1.4843	0	0	0	0	0	0	0	0	0
2.805	-301.833	2073.26	-100.855	0.979343	0	-0.279931	-4.19618	28.8231	-1.40212	0	0	0	0	0	0	0	0	0
2.81	-384.725	2221.52	-27.3961	0.970145	0	-0.281026	-5.04731	29.1447	-0.359416	0	0	0	0	0	0	0	0	0
2.815	-458.456	2347.24	64.5095	0.96435	0	-0.28025	-4.76876	24.4155	0.671015	0	0	0	0	0	0	0	0	0
2.82	-499.898	2476.73	148.544	0.956813	0	-0.278289	-3.19696	15.8393	0.949972	0	0	0	0	0	0	0	0	0
2.825	-498.686	2602.08	194.902	0.942533	0	-0.276303	-0.551143	2.87579	0.215403	0	0	0	0	0	0	0	0	0
2.83	-451.743	2701.5	190.811	0.91799	0	-0.27551	1.6135	-9.649	-0.681521	0	0	0	0	0	0	0	0	0
2.835	-360.976	2762.74	145.794	0.883395	0	-0.27643	1.83103	-14.0138	-0.739531	0	0	0	0	0	0	0	0	0
2.84	-243.218	2793.78	83.2788	0.844312	0	-0.278336	0.702146	-8.06538	-0.240418	0	0	0	0	0	0	0	0	0
2.845	-123.94	2806.98	27.7645	0.807555	0	-0.279913	-0.130509	2.95576	0.0292361	0	0	0	0	0	0	0	0	0
2.85	-17.3087	2800.72	-4.66838	0.77522	0	-0.28063	-0.0712424	11.5277	-0.019215	0	0	0	0	0	0	0	0	0
2.855	80.7043	2768.94	-10.5178	0.746731	0	-0.280684	0.407152	13.9693	-0.0530623	0	0	0	0	0	0	0	0	0
2.86	175.345	2709.38	-1.11686	0.721748	0	-0.280538	0.895398	13.8355	-0.00570322	0	0	0	0	0	0	0	0	0
2.865	260.839	2618.9	8.37978	0.699138	0	-0.280409	1.69129	16.981	0.0543347	0	0	0	0	0	0	0	0	0
2.87	332.828	2494.6	13.1801	0.677434	0	-0.280184	3.28148	24.5952	0.129947	0	0	0	0	0	0	0	0	0
2.875	392.759	2335.66	20.1215	0.655092	0	-0.279666	5.45388	32.4331	0.279409	0	0	0	0	0	0	0	0	0
2.88	443.212	2139.42	38.6609	0.629924	0	-0.279033	6.48381	31.2979	0.565575	0	0	0	0	0	0	0	0	0
2.885	481.673	1900.65	69.2617	0.598011	0	-0.279664	3.51963	13.8882	0.506102	0	0	0	0	0	0	0	0	0
2.89	505.1	1619.32	104.274	0.554151	0	-0.283524	-5.00628	-16.0498	-1.03351	0	0	0	0	0	0	0	0	0
2.895	516.134	1311.87	132.397	0.495342	0	-0.292428	-17.4981	-44.4754	-4.48855	0	0	0	0	0	0	0	0	0
2.9	513.469	1004.63	139.369	0.419223	0	-0.306263	-28.5908	-55.9393	-7.76029	0	0	0	0	0	0	0	0	0
2.905	487.921	722.913	110.347	0.321539	0	-0.317116	-28.27	-41.8854	-6.39348	0	0	0	0	0	0	0	0	0
2.91	431.988	489.402	46.6756	0.21049	0	-0.29751	-7.98437	-9.04555	-0.862699	0	0	0	0	0	0	0	0	0
2.915	348.025	319.489	-25.5361	0.141174	0	-0.214365	23.5771	21.6439	-1.72995	0	0	0	0	0	0	0	0	0
2.92	251.392	201.563	-66.3534	0.186466	0	-0.103435	37.7678	30.2817	-9.96857	0	0	0	0	0	0	0	0	0
2.925	159.323	112.759	-55.9665	0.372816	0	-0.0349986	25.9052	18.3341	-9.09989	0	0	0	0	0	0	0	0	0
2.93	81.5168	48.4648	-12.9805	0.283528	0	-0.173477	4.22146	2.50982	-0.672214	0	0	0	0	0	0	0	0	0
2.935	0	0	0	0	0	0	0	0	0	0	0	0	0	0	0	0	0	0
2.94	0	0	0	0	0	0	0	0	0	0	0	0	0	0	0	0	0	0
2.945	0	0	0	0	0	0	0	0	0	0	0	0	0	0	0	0	0	0
2.95	0	0	0	0	0	0	0	0	0	0	0	0	0	0	0	0	0	0
2.955	0	0	0	0	0	0	0	0	0	0	0	0	0	0	0	0	0	0
2.96	0	0	0	0	0	0	0	0	0	0	0	0	0	0	0	0	0	0
2.965	0	0	0	0	0	0	0	0	0	0	0	0	0	0	0	0	0	0
2.97	0	0	0	0	0	0	0	0	0	0	0	0	0	0	0	0	0	0
2.975	0	0	0	0	0	0	0	0	0	0	0	0	0	0	0	0	0	0
2.98	0	0	0	0	0	0	0	0	0	0	0	0	0	0	0	0	0	0
2.985	0	0	0	0	0	0	0	0	0	0	0	0	0	0	0	0	0	0
2.99	0	0	0	0	0	0	0	0	0	0	0	0	0	0	0	0	0	0
2.995	0	0	0	0	0	0	0	0	0	0	0	0	0	0	0	0	0	0
3	0	0	0	0	0	0	0	0	0	0	0	0	0	0	0	0	0	0
3.005	0	0	0	0	0	0	0	0	0	0	0	0	0	0	0	0	0	0
3.01	0	0	0	0	0	0	0	0	0	0	0	0	0	0	0	0	0	0
3.015	0	0	0	0	0	0	0	0	0	0	0	0	0	0	0	0	0	0
3.02	0	0	0	0	0	0	0	0	0	0	0	0	0	0	0	0	0	0
3.025	0	0	0	0	0	0	0	0	0	0	0	0	0	0	0	0	0	0
3.03	0	0	0	0	0	0	0	0	0	0	0	0	0	0	0	0	0	0
3.035	0	0	0	0	0	0	0	0	0	0	0	0	0	0	0	0	0	0
3.04	0	0	0	0	0	0	0	0	0	0	0	0	0	0	0	0	0	0
3.045	0	0	0	0	0	0	0	0	0	0	0	0	0	0	0	0	0	0
3.05	0	0	0	0	0	0	0	0	0	0	0	0	0	0	0	0	0	0
3.055	0	0	0	0	0	0	0	0	0	0	0	0	0	0	0	0	0	0
3.06	0	0	0	0	0	0	0	0	0	-20.2505	32.4641	-10.8091	1.25017	0	-0.289314	1.81715	-2.91311	0.969941
3.065	0	0	0	0	0	0	0	0	0	-62.8992	155.591	1.88565	1.16925	0	-0.360403	0.590115	-1.45974	-0.017691
3.07	0	0	0	0	0	0	0	0	0	-121.271	359.109	25.2106	1.08288	0	-0.371656	-0.285632	0.84582	0.0593794
3.075	0	0	0	0	0	0	0	0	0	-180.595	633.2	65.3441	1.07435	0	-0.357307	-0.918461	3.22031	0.332325
3.08	0	0	0	0	0	0	0	0	0	-220.966	932.999	119.898	1.06706	0	-0.343865	-1.1877	5.01488	0.64445
3.085	0	0	0	0	0	0	0	0	0	-236.135	1220.81	166.273	1.0576	0	-0.332152	-0.406128	2.09967	0.285973
3.09	0	0	0	0	0	0	0	0	0	-251.07	1489.03	175.83	1.03969	0	-0.322865	1.73641	-10.2982	-1.21605
3.095	0	0	0	0	0	0	0	0	0	-285.448	1733.57	133.32	1.01655	0	-0.316308	4.26726	-25.9157	-1.99304
3.1	0	0	0	0	0	0	0	0	0	-325.391	1945.33	45.7839	0.999733	0	-0.312791	5.26729	-31.4901	-0.741129
3.105	0	0	0	0	0	0	0	0	0	-365.93	2127.27	-58.8391	0.990755	0	-0.31163	4.13866	-24.0594	0.665469
3.11	0	0	0	0	0	0	0	0	0	-411.774	2284.24	-148.912	0.983771	0	-0.311779	1.85322	-10.2804	0.670191
3.115	0	0	0	0	0	0	0	0	0	-446.752	2412.53	-200.136	0.974925	0	-0.312405	-0.31195	1.68458	-0.139748
3.12	0	0	0	0	0	0	0	0	0	-454.423	2513.32	-197.67	0.958858	0	-0.313076	-1.64881	9.11919	-0.717216
3.125	0	0	0	0	0	0	0	0	0	-425.409	2587.62	-142.739	0.932251	0	-0.313501	-2.20901	13.4367	-0.741198
3.13	0	0	0	0	0	0	0	0	0	-356.038	2636.54	-61.175	0.898603	0	-0.313593	-1.80942	13.3991	-0.310896
3.135	0	0	0	0	0	0	0	0	0	-261.204	2668.16	11.5281	0.862915	0	-0.313355	-0.6864	7.01148	0.0302939
3.14	0	0	0	0	0	0	0	0	0	-161.315	2685.66	51.2913	0.827967	0	-0.313189	0.154609	-2.57401	-0.049159
3.145	0	0	0	0	0	0	0	0	0	-66.1527	2685	59.1045	0.794969	0	-0.313117	0.244297	-9.91553	-0.218269
3.15	0	0	0	0	0	0	0	0	0	23.6844	2664.55	50.2018	0.764504	0	-0.312927	-0.113079	-12.7216	-0.239684
3.155	0	0	0	0	0	0	0	0	0	107.127	2623.09	37.7653	0.735698	0	-0.312359	-0.552289	-13.5232	-0.194697
3.16	0	0	0	0	0	0	0	0	0	186.211	2558.9	23.4616	0.708369	0	-0.311466	-1.22561	-16.8423	-0.154421
3.165	0	0	0	0	0	0	0	0	0	261.226	2471.16	1.01702	0.682534	0	-0.310505	-2.45888	-23.2606	-0.00957303
3.17	0	0	0	0	0	0	0	0	0	326.783	2359.83	-37.4279	0.658312	0	-0.309538	-3.45435	-24.9452	0.395641
3.175	0	0	0	0	0	0	0	0	0	380.745	2223.31	-92.5043	0.636769	0	-0.308057	-2.0349	-11.8825	0.494391
3.18	0	0	0	0	0	0	0	0	0	422.85	2059.23	-154.557	0.617707	0	-0.305387	3.77193	18.3688	-1.37869
3.185	0	0	0	0	0	0	0	0	0	456.402	1863.02	-203.649	0.598049	0	-0.301222	13.2992	54.2869	-5.9342
3.19	0	0	0	0	0	0	0	0	0	485.276	1629.77	-217.173	0.570663	0	-0.296195	22.7619	76.4444	-10.1865
3.195	0	0	0	0	0	0	0	0	0	505.051	1356.2	-181.813	0.522722	0	-0.292914	25.8848	69.5078	-9.31824
3.2	0	0	0	0	0	0	0	0	0	506.14	1049.41	-104.445	0.441075	0	-0.299222	14.853	30.7955	-3.065
3.205	0	0	0	0	0	0	0	0	0	476.969	733.48	-12.9114	0.322006	0	-0.333976	-14.7923	-22.7475	0.400423
3.21	0	0	0	0	0	0	0	0	0	411.088	443.881	52.1648	0.184271	0	-0.423652	-48.471	-52.3376	-6.1507
3.215	0	0	0	0	0	0	0	0	0	313.907	215.738	65.5768	0.107152	0	-0.558351	-52.0049	-35.7413	-10.8641
3.22	0	0	0	0	0	0	0	0	0	203.984	67.2224	32.33	0.364494	0	-0.593549	-18.7136	-6.16704	-2.96598
